<svg width="802" height="109" viewBox="0 0 802 109" fill="none" xmlns="http://www.w3.org/2000/svg">
<g clip-path="url(#clip0_24_498)">
<path fill-rule="evenodd" clip-rule="evenodd" d="M14.3702 14.3716C10.8466 7.84765 15.6685 0 23.1987 0H120.312C127.647 0 132.342 7.65674 128.901 14.0077L80.2253 103.801C76.4653 110.743 66.3153 110.73 62.5685 103.781L51.9221 84.023L43.4365 99.6828C42.8856 100.702 42.0618 101.555 41.0534 102.151C40.0451 102.745 38.8906 103.06 37.7137 103.06C36.5367 103.06 35.3821 102.745 34.3737 102.151C33.3654 101.555 32.5416 100.702 31.9908 99.6828L0.745844 41.71C0.226239 40.7426 -0.0297237 39.66 0.00274582 38.5672C0.0352154 37.4744 0.35502 36.4084 0.93118 35.4723C1.50734 34.5362 2.32033 33.7619 3.2914 33.2243C4.26247 32.6866 5.35872 32.404 6.47393 32.4037H24.0841L14.3702 14.3716ZM55.7005 77.0918L76.6887 38.3651C77.0282 37.7387 77.1968 37.0368 77.1777 36.3277C77.1586 35.6185 76.9531 34.9263 76.5801 34.3182C76.2075 33.7102 75.6804 33.207 75.0508 32.8577C74.4209 32.5084 73.7096 32.3248 72.9859 32.3248H31.0949C30.3527 32.3269 29.6237 32.5169 28.9783 32.8764C28.333 33.2358 27.7933 33.7525 27.4115 34.3765C27.0297 35.0004 26.8186 35.7104 26.7989 36.4377C26.7791 37.1651 26.9513 37.8851 27.2987 38.528L48.0846 77.0918C48.4513 77.7699 48.9995 78.3371 49.6707 78.7326C50.3415 79.1282 51.1096 79.3372 51.8925 79.3372C52.6754 79.3372 53.4436 79.1282 54.1144 78.7326C54.7852 78.3371 55.3333 77.7699 55.7005 77.0918ZM212.982 41.6563H223.604C223.935 41.6711 224.259 41.557 224.504 41.339C224.75 41.1214 224.898 40.8174 224.915 40.4931V34.1779C224.898 33.8528 224.75 33.5477 224.504 33.3293C224.258 33.1109 223.934 32.9968 223.602 33.0121H191.601C191.441 33.0056 191.28 33.0308 191.129 33.0863C190.978 33.1419 190.841 33.2265 190.724 33.3352C190.607 33.444 190.514 33.5746 190.449 33.7193C190.385 33.8641 190.351 34.02 190.35 34.1779V40.4908C190.351 40.6484 190.385 40.8045 190.449 40.949C190.514 41.0938 190.607 41.2246 190.724 41.3332C190.841 41.4418 190.978 41.5267 191.129 41.5819C191.28 41.6376 191.441 41.6629 191.601 41.6563H202.286V77.3464C202.287 77.6714 202.419 77.9833 202.654 78.213C202.888 78.443 203.206 78.5727 203.538 78.573H211.73C212.062 78.5727 212.38 78.443 212.614 78.213C212.849 77.9833 212.981 77.6714 212.982 77.3464V41.6563ZM257.706 78.3161C255.516 78.6217 251.835 79.113 245.081 79.113C237.013 79.113 229.886 77.0891 229.886 65.9325V45.5686C229.886 34.412 237.078 32.4495 245.143 32.4495C251.894 32.4495 255.516 32.9408 257.706 33.2462C258.58 33.3684 258.957 33.6764 258.957 34.4731V40.1825C258.956 40.5079 258.824 40.8193 258.59 41.0494C258.355 41.2795 258.037 41.4087 257.706 41.4095H244.52C241.581 41.4095 240.519 42.3893 240.519 45.5791V51.1588H257.207C257.539 51.1591 257.857 51.2888 258.091 51.5188C258.326 51.7485 258.458 52.0603 258.459 52.3854V58.2095C258.458 58.5346 258.326 58.8464 258.091 59.0764C257.857 59.3061 257.539 59.4358 257.207 59.4365H240.519V65.9349C240.519 69.122 241.581 70.1045 244.52 70.1045H257.706C258.037 70.1053 258.355 70.2345 258.59 70.4646C258.824 70.6947 258.956 71.0061 258.957 71.3315V77.033C258.957 77.8248 258.58 78.1939 257.706 78.3161ZM294.946 78.5606H304.888C305.39 78.5606 305.704 78.3161 305.701 77.9595C305.689 77.7435 305.625 77.5332 305.514 77.3464L291.311 55.3307L304.93 34.1727C304.999 34.0605 305.042 33.9343 305.055 33.8037C305.032 33.5784 304.922 33.3702 304.748 33.222C304.574 33.0737 304.348 32.9967 304.117 33.0069H294.863C294.18 33.0069 293.616 33.6204 293.305 34.1727L285.562 46.5562L277.562 34.1727C277.193 33.6204 276.692 33.0069 276.004 33.0069H265.937C265.706 32.9967 265.48 33.0737 265.306 33.222C265.131 33.3702 265.022 33.5784 264.999 33.8037C265.012 33.9343 265.055 34.0605 265.124 34.1727L278.811 55.2007L265.264 77.3464C265.194 77.4803 265.152 77.6263 265.14 77.7766C265.14 78.204 265.451 78.573 266.077 78.573H275.331C276.014 78.573 276.45 78.0818 276.889 77.3464L284.7 64.2243L293.321 77.6415C293.757 78.306 294.133 78.5606 294.946 78.5606ZM175.362 33.1342C175.139 33.1348 174.922 33.2112 174.75 33.3504C174.578 33.4897 174.46 33.6831 174.417 33.8979L165.339 66.8337C165.214 67.508 165.027 67.7525 164.464 67.7525C163.901 67.7525 163.714 67.4979 163.589 66.8337L154.501 33.8902C154.458 33.6755 154.34 33.482 154.168 33.3428C153.995 33.2035 153.779 33.1272 153.556 33.1266H144.621C144.476 33.1267 144.332 33.159 144.202 33.2211C144.071 33.2831 143.956 33.3732 143.865 33.4848C143.775 33.5963 143.711 33.7264 143.679 33.8654C143.648 34.0043 143.648 34.1486 143.681 34.2873C143.681 34.2873 154.768 72.0595 154.89 72.4309C156.371 76.9314 159.962 79.0822 164.531 79.0822C168.884 79.0822 172.682 76.8294 174.168 72.4437C174.344 71.9345 185.185 34.2848 185.185 34.2848C185.217 34.1462 185.217 34.0022 185.185 33.8636C185.153 33.725 185.09 33.5952 184.999 33.4839C184.909 33.3727 184.794 33.2828 184.664 33.2209C184.533 33.1591 184.39 33.1269 184.245 33.1266L175.362 33.1342Z" fill="#F71963"/>
<path d="M350.472 109V0" stroke="#F71963"/>
<path d="M426.543 78.7136C438.534 78.7136 447.878 71.4729 449.513 58.0814L442.661 56.4464C441.571 67.3464 435.264 72.5629 426.699 72.5629C416.499 72.5629 409.725 64.6993 409.725 51.4636C409.725 38.15 416.421 30.3643 426.699 30.3643C435.264 30.3643 440.792 35.1136 442.505 44.9236L449.358 43.6779C447.177 31.2986 438.612 24.2136 427.166 24.2136C412.839 24.2136 402.795 33.8679 402.795 51.4636C402.795 68.9814 412.684 78.7136 426.543 78.7136ZM474.5 78.6357C484.856 78.6357 493.031 71.7064 493.031 58.6264C493.031 45.5464 484.856 38.6171 474.5 38.6171C464.144 38.6171 455.89 45.5464 455.89 58.6264C455.89 71.7064 464.144 78.6357 474.5 78.6357ZM474.5 72.8743C467.336 72.8743 462.431 67.7357 462.431 58.6264C462.431 49.5171 467.336 44.4564 474.5 44.4564C481.663 44.4564 486.413 49.5171 486.413 58.6264C486.413 67.7357 481.663 72.8743 474.5 72.8743ZM509.293 77.8572V53.2543C509.293 47.3372 512.642 44.3007 517.858 44.3007C523.075 44.3007 526.424 47.3372 526.424 53.2543V77.7793H532.653V53.8771C532.653 47.8043 536.001 44.3007 541.14 44.3007C546.357 44.3007 549.705 47.5707 549.705 52.7872V77.7793H555.934V51.5414C555.934 43.055 551.262 38.5393 543.943 38.5393C537.169 38.5393 533.431 42.4321 532.575 47.7264H532.497C531.64 41.8093 527.124 38.5393 520.662 38.5393C514.121 38.5393 510.461 42.1207 509.371 47.3371H509.293V39.4736H503.142V77.8572H509.293ZM572.71 77.8572V53.2543C572.71 47.3372 576.058 44.3007 581.275 44.3007C586.492 44.3007 589.84 47.3372 589.84 53.2543V77.7793H596.069V53.8771C596.069 47.8043 599.417 44.3007 604.556 44.3007C609.773 44.3007 613.121 47.5707 613.121 52.7872V77.7793H619.35V51.5414C619.35 43.055 614.679 38.5393 607.359 38.5393C600.585 38.5393 596.848 42.4321 595.991 47.7264H595.913C595.057 41.8093 590.541 38.5393 584.078 38.5393C577.537 38.5393 573.878 42.1207 572.788 47.3371H572.71V39.4736H566.559V77.8572H572.71ZM654.424 39.4736V63.0643C654.424 69.215 651.076 72.9521 644.458 72.9521C638.306 72.9521 635.348 69.215 635.348 63.0643V39.4736H629.118V63.1421C629.118 73.8086 634.024 78.7914 642.433 78.7914C648.818 78.7914 653.023 75.2879 654.502 68.5922H654.736V77.8572H660.653V39.4736H654.424ZM678.328 77.8572V54.2664C678.328 48.1157 681.677 44.3786 688.373 44.3786C694.446 44.3786 697.483 48.1157 697.483 54.2664V77.8572H703.634V54.1886C703.634 43.5222 698.729 38.5393 690.32 38.5393C683.935 38.5393 679.808 42.0429 678.251 48.7386H678.017V39.4736H672.177V77.8572H678.328ZM718.039 33.4786C720.764 33.4786 722.477 31.7657 722.477 28.9629C722.477 26.16 720.764 24.4472 718.039 24.4472C715.314 24.4472 713.601 26.16 713.601 28.9629C713.601 31.7657 715.314 33.4786 718.039 33.4786ZM721.076 77.8572V39.4736H714.925V77.8572H721.076ZM747.094 72.9521C743.746 72.9521 742.111 71.94 742.111 68.2807V44.8457H753.012V39.4736H742.111V28.7293H738.14C737.361 36.2036 735.181 39.3957 729.497 41.1086V44.8457H735.882V69.6821C735.882 76.5336 739.697 78.6357 745.537 78.6357C748.184 78.6357 750.754 78.2464 752.7 77.7014L753.557 71.94C751.922 72.485 749.508 72.9521 747.094 72.9521ZM776.916 71.0057L764.925 39.4736H758.229L773.49 78.0129L767.417 92.4164H774.269L795.759 39.4736H788.829L776.916 71.0057Z" fill="#F71963"/>
</g>
<defs>
<clipPath id="clip0_24_498">
<rect width="802" height="109" fill="white"/>
</clipPath>
</defs>
</svg>
